<?xml version="1.0" encoding="utf-8"?>
<!-- Generator: Adobe Illustrator 15.0.0, SVG Export Plug-In . SVG Version: 6.00 Build 0)  -->
<!DOCTYPE svg PUBLIC "-//W3C//DTD SVG 1.1//EN" "http://www.w3.org/Graphics/SVG/1.1/DTD/svg11.dtd">
<svg version="1.1" id="Ebene_3" xmlns="http://www.w3.org/2000/svg" xmlns:xlink="http://www.w3.org/1999/xlink" x="0px" y="0px"
	 width="97.813px" height="48.567px" viewBox="-16.817 0.537 97.813 48.567" enable-background="new -16.817 0.537 97.813 48.567"
	 xml:space="preserve">
<g>
	<rect x="-16.817" y="0.537" fill="#C4182A" width="97.811" height="48.567"/>
	<g>
		<g>
			<defs>
				<rect id="SVGID_1_" x="-16.817" y="0.537" width="97.811" height="48.567"/>
			</defs>
			<clipPath id="SVGID_2_">
				<use xlink:href="#SVGID_1_"  overflow="visible"/>
			</clipPath>
			<path clip-path="url(#SVGID_2_)" d="M-10.018,5.49H4.456c3.302,0,5.73,0.292,7.479,0.777c2.331,0.68,4.273,1.845,5.926,3.594
				c1.65,1.749,2.913,3.885,3.788,6.313c0.874,2.525,1.262,5.634,1.262,9.228c0,3.205-0.388,6.023-1.165,8.354
				c-0.972,2.816-2.429,5.148-4.177,6.896c-1.36,1.359-3.205,2.428-5.536,3.107c-1.749,0.584-4.08,0.875-6.994,0.875h-15.056V5.49z
				 M-2.15,12.193v26.032h5.925c2.234,0,3.788-0.098,4.76-0.389c1.263-0.291,2.331-0.875,3.205-1.652
				c0.875-0.777,1.554-2.039,2.04-3.787c0.583-1.748,0.777-4.178,0.777-7.188c0-3.011-0.292-5.342-0.777-6.994
				c-0.583-1.651-1.263-2.914-2.234-3.788c-0.971-0.875-2.234-1.554-3.691-1.846c-1.067-0.292-3.302-0.388-6.508-0.388H-2.15
				L-2.15,12.193z"/>
		</g>
		<g>
			<defs>
				<rect id="SVGID_3_" x="-16.817" y="0.537" width="97.811" height="48.567"/>
			</defs>
			<clipPath id="SVGID_4_">
				<use xlink:href="#SVGID_3_"  overflow="visible"/>
			</clipPath>
			<path clip-path="url(#SVGID_4_)" fill="#FFFFFF" d="M35.828,38.127v-10.49h3.401c1.261,0,2.138,0.098,2.526,0.193
				c0.582,0.195,1.068,0.486,1.552,1.07c0.389,0.484,0.584,1.164,0.584,2.039c0,0.68-0.098,1.166-0.389,1.65
				c-0.195,0.486-0.485,0.777-0.874,1.068s-0.777,0.389-1.068,0.486c-0.486,0.098-1.264,0.195-2.235,0.195h-1.36v3.98h-2.137V38.127
				z M37.965,29.385v3.012h1.167c0.872,0,1.358-0.098,1.649-0.195c0.293-0.096,0.488-0.291,0.682-0.484
				c0.195-0.195,0.195-0.486,0.195-0.777c0-0.389-0.098-0.68-0.291-0.971c-0.195-0.293-0.486-0.391-0.877-0.486
				c-0.291,0-0.777-0.098-1.554-0.098H37.965z"/>
		</g>
		<g>
			<defs>
				<rect id="SVGID_5_" x="-16.817" y="0.537" width="97.811" height="48.567"/>
			</defs>
			<clipPath id="SVGID_6_">
				<use xlink:href="#SVGID_5_"  overflow="visible"/>
			</clipPath>
			<path clip-path="url(#SVGID_6_)" fill="#FFFFFF" d="M53.992,38.127H51.66l-0.873-2.33h-4.178l-0.871,2.33h-2.235l4.079-10.49
				h2.232L53.992,38.127z M50.105,33.949l-1.457-3.885l-1.457,3.885H50.105z"/>
		</g>
		<g>
			<defs>
				<rect id="SVGID_7_" x="-16.817" y="0.537" width="97.811" height="48.567"/>
			</defs>
			<clipPath id="SVGID_8_">
				<use xlink:href="#SVGID_7_"  overflow="visible"/>
			</clipPath>
			<path clip-path="url(#SVGID_8_)" fill="#FFFFFF" d="M61.957,34.242l2.039,0.68c-0.291,1.166-0.873,2.039-1.553,2.525
				c-0.777,0.582-1.652,0.873-2.818,0.873c-1.359,0-2.525-0.484-3.496-1.455c-0.875-0.973-1.359-2.234-1.359-3.887
				c0-1.748,0.484-3.107,1.359-4.078c0.873-0.973,2.137-1.457,3.594-1.457c1.264,0,2.33,0.387,3.107,1.164
				c0.486,0.486,0.875,1.068,1.07,1.943l-2.041,0.484c-0.098-0.582-0.389-0.971-0.777-1.262s-0.873-0.486-1.457-0.486
				c-0.777,0-1.457,0.291-1.941,0.875c-0.486,0.582-0.777,1.457-0.777,2.721c0,1.359,0.193,2.232,0.68,2.816
				c0.486,0.582,1.068,0.873,1.846,0.873c0.582,0,1.068-0.193,1.457-0.582C61.471,35.602,61.762,35.02,61.957,34.242"/>
		</g>
		<g>
			<defs>
				<rect id="SVGID_9_" x="-16.817" y="0.537" width="97.811" height="48.567"/>
			</defs>
			<clipPath id="SVGID_10_">
				<use xlink:href="#SVGID_9_"  overflow="visible"/>
			</clipPath>
			<polygon clip-path="url(#SVGID_10_)" fill="#FFFFFF" points="65.842,38.127 65.842,27.637 67.979,27.637 67.979,32.299 
				72.252,27.637 75.07,27.637 71.184,31.717 75.361,38.127 72.545,38.127 69.727,33.174 67.979,34.922 67.979,38.127 			"/>
		</g>
		<g>
			<defs>
				<rect id="SVGID_11_" x="-16.817" y="0.537" width="97.811" height="48.567"/>
			</defs>
			<clipPath id="SVGID_12_">
				<use xlink:href="#SVGID_11_"  overflow="visible"/>
			</clipPath>
			<polygon clip-path="url(#SVGID_12_)" points="27.961,44.732 27.961,5.49 57.002,5.49 57.002,12.095 35.828,12.095 35.828,20.74 
				55.545,20.74 55.545,27.443 35.828,27.443 35.828,38.127 57.779,38.127 57.779,44.732 			"/>
		</g>
	</g>
</g>
</svg>
